<svg width="31" height="31" viewBox="0 0 31 31" fill="none" xmlns="http://www.w3.org/2000/svg">
<path d="M19.755 22.8075L23.0469 28.5094H20.8535L17.5617 22.8075H12.8595L9.56763 28.5094H7.37431L10.6662 22.8075H4.75145C4.49941 22.8075 4.25769 22.7074 4.07947 22.5292C3.90125 22.3509 3.80113 22.1092 3.80113 21.8572V5.70186H1.90051C1.64847 5.70186 1.40675 5.60174 1.22854 5.42352C1.05032 5.24531 0.950195 5.00359 0.950195 4.75155C0.950195 4.49951 1.05032 4.2578 1.22854 4.07958C1.40675 3.90136 1.64847 3.80124 1.90051 3.80124H28.5093C28.7613 3.80124 29.003 3.90136 29.1812 4.07958C29.3594 4.2578 29.4596 4.49951 29.4596 4.75155C29.4596 5.00359 29.3594 5.24531 29.1812 5.42352C29.003 5.60174 28.7613 5.70186 28.5093 5.70186H26.6086V21.8572C26.6086 22.1092 26.5085 22.3509 26.3303 22.5292C26.1521 22.7074 25.9104 22.8075 25.6583 22.8075H19.755ZM24.708 5.70186H5.70176V20.9069H24.708V5.70186ZM10.4533 13.3044C10.7054 13.3044 10.9471 13.4045 11.1253 13.5827C11.3035 13.7609 11.4036 14.0026 11.4036 14.2547V16.1553C11.4036 16.4073 11.3035 16.6491 11.1253 16.8273C10.9471 17.0055 10.7054 17.1056 10.4533 17.1056C10.2013 17.1056 9.95957 17.0055 9.78135 16.8273C9.60313 16.6491 9.50301 16.4073 9.50301 16.1553V14.2547C9.50301 14.0026 9.60313 13.7609 9.78135 13.5827C9.95957 13.4045 10.2013 13.3044 10.4533 13.3044ZM15.2049 11.4037C15.4569 11.4037 15.6986 11.5039 15.8769 11.6821C16.0551 11.8603 16.1552 12.102 16.1552 12.3541V16.1553C16.1552 16.4073 16.0551 16.6491 15.8769 16.8273C15.6986 17.0055 15.4569 17.1056 15.2049 17.1056C14.9528 17.1056 14.7111 17.0055 14.5329 16.8273C14.3547 16.6491 14.2546 16.4073 14.2546 16.1553V12.3541C14.2546 12.102 14.3547 11.8603 14.5329 11.6821C14.7111 11.5039 14.9528 11.4037 15.2049 11.4037ZM19.9564 9.50311C20.2085 9.50311 20.4502 9.60324 20.6284 9.78145C20.8066 9.95967 20.9068 10.2014 20.9068 10.4534V16.1553C20.9068 16.4073 20.8066 16.6491 20.6284 16.8273C20.4502 17.0055 20.2085 17.1056 19.9564 17.1056C19.7044 17.1056 19.4627 17.0055 19.2845 16.8273C19.1063 16.6491 19.0061 16.4073 19.0061 16.1553V10.4534C19.0061 10.2014 19.1063 9.95967 19.2845 9.78145C19.4627 9.60324 19.7044 9.50311 19.9564 9.50311Z" fill="#0567FB"/>
</svg>
