<svg width="62" height="62" viewBox="0 0 62 62" fill="none" xmlns="http://www.w3.org/2000/svg">
<circle cx="31" cy="31" r="31" fill="white" fill-opacity="0.1"/>
<path d="M27.1251 16.9167C29.958 16.9169 32.6941 17.9476 34.8231 19.8165C36.952 21.6854 38.3284 24.265 38.6955 27.074L41.9768 32.235C42.1926 32.5748 42.1489 33.0809 41.6487 33.2967L38.7918 34.5188V38.7917C38.7918 39.5652 38.4845 40.3071 37.9375 40.8541C37.3905 41.4011 36.6487 41.7084 35.8751 41.7084H32.9599L32.9585 46.0834H19.8335V40.6963C19.8335 38.9754 19.1976 37.3465 18.0193 35.8765C16.6452 34.1608 15.7837 32.0918 15.5342 29.9079C15.2846 27.724 15.6571 25.514 16.6088 23.5325C17.5604 21.5511 19.0524 19.8788 20.913 18.7083C22.7736 17.5378 24.927 16.9167 27.1251 16.9167ZM44.8497 40.3988L42.4216 38.78C43.8618 36.6256 44.6289 34.0915 44.6251 31.5C44.6297 28.9082 43.8631 26.3735 42.423 24.2186L44.8497 22.5998C46.6102 25.2337 47.5473 28.3319 47.5418 31.5C47.5418 34.7929 46.5501 37.8525 44.8497 40.3988Z" fill="white"/>
</svg>
