<svg width="252" height="124" viewBox="0 0 252 124" fill="none" xmlns="http://www.w3.org/2000/svg">
<path d="M0.720122 67.9997L18.0326 68.5255L9.83171 53.2695L0.720122 67.9997ZM216.639 121.966L215.152 122.167L216.639 121.966ZM9.19578 65.25C10.9181 64.3803 12.6784 63.5124 14.474 62.6491L13.174 59.9454C11.3609 60.8171 9.58316 61.6936 7.84346 62.5721L9.19578 65.25ZM19.7642 60.1662C21.5181 59.3629 23.3007 58.5658 25.1098 57.7771L23.911 55.0271C22.0849 55.8232 20.2854 56.6278 18.5149 57.4387L19.7642 60.1662ZM30.5129 55.4803C32.3089 54.7361 34.1274 54.0018 35.9663 53.2793L34.8691 50.4871C33.013 51.2164 31.1774 51.9577 29.3645 52.7088L30.5129 55.4803ZM41.4273 51.1914C43.2489 50.5143 45.0876 49.85 46.9414 49.2005L45.9495 46.3693C44.0775 47.0251 42.221 47.6958 40.382 48.3794L41.4273 51.1914ZM52.5001 47.3131C54.3488 46.7055 56.2101 46.1137 58.0824 45.5396L57.2028 42.6714C55.311 43.2516 53.4306 43.8494 51.5633 44.4631L52.5001 47.3131ZM63.7012 43.8796C65.5781 43.3464 67.4638 42.8322 69.3565 42.3385L68.5994 39.4356C66.6852 39.9349 64.7786 40.4548 62.8814 40.9938L63.7012 43.8796ZM75.0392 40.9244C76.9396 40.4746 78.845 40.0469 80.7538 39.6429L80.1326 36.7079C78.1999 37.117 76.2711 37.5499 74.3482 38.0051L75.0392 40.9244ZM86.4946 38.5028C88.4151 38.1468 90.337 37.8164 92.2585 37.5131L91.7909 34.5498C89.8421 34.8573 87.8938 35.1923 85.9478 35.5531L86.4946 38.5028ZM98.0522 36.6826C99.9908 36.4332 101.927 36.2133 103.859 36.0244L103.567 33.0387C101.604 33.2305 99.6373 33.4539 97.6694 33.7071L98.0522 36.6826ZM109.673 35.5509C111.627 35.4242 113.575 35.3315 115.514 35.2744L115.425 32.2757C113.45 32.3338 111.467 32.4283 109.479 32.5571L109.673 35.5509ZM121.348 35.212C123.299 35.2288 125.238 35.2841 127.165 35.3797L127.314 32.3834C125.345 32.2856 123.364 32.2292 121.374 32.2122L121.348 35.212ZM132.977 35.7962C134.921 35.9797 136.85 36.2073 138.76 36.481L139.185 33.5114C137.226 33.2306 135.25 32.9973 133.259 32.8095L132.977 35.7962ZM144.486 37.4523C146.392 37.8277 148.278 38.2527 150.14 38.7295L150.884 35.8233C148.966 35.3321 147.025 34.8947 145.066 34.5089L144.486 37.4523ZM155.718 40.337C157.563 40.9306 159.381 41.5799 161.172 42.2869L162.274 39.4966C160.421 38.7651 158.541 38.0941 156.637 37.4812L155.718 40.337ZM166.474 44.5924C168.214 45.4219 169.924 46.3119 171.599 47.2647L173.082 44.6568C171.342 43.6675 169.569 42.7441 167.765 41.8843L166.474 44.5924ZM176.51 50.3037C178.099 51.3712 179.652 52.5023 181.169 53.6992L183.028 51.344C181.45 50.0993 179.835 48.9233 178.184 47.8138L176.51 50.3037ZM185.559 57.444C186.965 58.7399 188.334 60.1008 189.664 61.5287L191.859 59.4836C190.477 58.0001 189.054 56.5855 187.592 55.238L185.559 57.444ZM193.432 65.8852C194.618 67.3627 195.768 68.9023 196.879 70.5061L199.345 68.7977C198.194 67.1365 197.002 65.5402 195.771 64.0072L193.432 65.8852ZM200.023 75.3916C200.994 77.0182 201.93 78.7031 202.829 80.4479L205.496 79.0739C204.569 77.2742 203.603 75.5344 202.598 73.8531L200.023 75.3916ZM205.322 85.6574C206.1 87.4116 206.844 89.2204 207.552 91.0852L210.357 90.0202C209.63 88.1056 208.865 86.2462 208.064 84.4409L205.322 85.6574ZM209.457 96.5073C210.047 98.3257 210.605 100.193 211.131 102.109L214.024 101.316C213.487 99.356 212.915 97.4449 212.311 95.5817L209.457 96.5073ZM212.547 107.739C212.974 109.599 213.373 111.502 213.742 113.448L216.689 112.89C216.313 110.906 215.907 108.966 215.471 107.067L212.547 107.739ZM214.724 119.199C214.874 120.178 215.017 121.167 215.152 122.167L218.125 121.764C217.987 120.748 217.842 119.741 217.69 118.745L214.724 119.199ZM215.152 122.167C215.299 123.246 215.435 124.302 215.563 125.335L218.54 124.968C218.411 123.923 218.273 122.855 218.125 121.764L215.152 122.167ZM216.215 131.258C216.405 133.241 216.556 135.125 216.67 136.911L219.663 136.721C219.548 134.9 219.394 132.984 219.201 130.972L216.215 131.258ZM216.921 142.926C216.958 145.016 216.932 146.935 216.85 148.69L219.847 148.83C219.932 147.003 219.958 145.019 219.921 142.873L216.921 142.926ZM216.341 154.197C216.009 156.431 215.553 158.224 215.012 159.625L217.81 160.707C218.452 159.044 218.954 157.024 219.309 154.638L216.341 154.197ZM212.157 163.389C211.181 163.813 209.862 163.693 208.1 162.545L206.463 165.059C208.669 166.496 211.088 167.125 213.353 166.14L212.157 163.389ZM204.115 158.802C203.023 157.487 201.912 155.926 200.808 154.138L198.256 155.715C199.42 157.599 200.61 159.278 201.807 160.718L204.115 158.802ZM198.007 149.078C197.177 147.416 196.367 145.636 195.586 143.752L192.815 144.901C193.621 146.846 194.46 148.689 195.322 150.417L198.007 149.078ZM193.489 138.223C192.877 136.455 192.294 134.62 191.747 132.726L188.865 133.559C189.426 135.502 190.025 137.387 190.654 139.205L193.489 138.223ZM190.262 127.055C189.82 125.179 189.415 123.258 189.053 121.299L186.103 121.844C186.474 123.851 186.889 125.82 187.342 127.743L190.262 127.055ZM188.131 115.554C187.87 113.632 187.651 111.68 187.479 109.706L184.49 109.966C184.666 111.989 184.891 113.989 185.159 115.959L188.131 115.554ZM187.117 103.893C187.045 101.955 187.02 100.001 187.047 98.0364L184.047 97.9951C184.02 100.013 184.045 102.018 184.119 104.005L187.117 103.893ZM187.282 92.2009C187.411 90.2688 187.594 88.3307 187.833 86.3911L184.856 86.0241C184.61 88.0205 184.422 90.014 184.289 92.0001L187.282 92.2009ZM188.715 80.6165C189.063 78.7161 189.469 76.8187 189.936 74.9285L187.024 74.2089C186.542 76.1601 186.123 78.1174 185.764 80.0762L188.715 80.6165ZM191.517 69.3063C192.097 67.4719 192.74 65.6485 193.448 63.8399L190.654 62.7465C189.922 64.6185 189.257 66.5048 188.657 68.4011L191.517 69.3063ZM195.765 58.4742C196.584 56.7465 197.468 55.0366 198.42 53.3479L195.806 51.8748C194.819 53.6261 193.903 55.3989 193.054 57.1892L195.765 58.4742ZM201.477 48.3569C202.528 46.775 203.644 45.216 204.829 43.6832L202.455 41.8485C201.226 43.4388 200.068 45.0563 198.978 46.6975L201.477 48.3569ZM208.592 39.1666C209.849 37.7647 211.17 36.389 212.559 35.0423L210.47 32.8887C209.032 34.284 207.662 35.71 206.358 37.1637L208.592 39.1666ZM216.928 31.0915C218.364 29.8805 219.862 28.6974 221.423 27.5448L219.642 25.1312C218.029 26.322 216.48 27.5451 214.994 28.7982L216.928 31.0915ZM226.254 24.2107C227.848 23.182 229.502 22.1824 231.215 21.2139L229.739 18.6021C227.975 19.5991 226.272 20.6289 224.628 21.6898L226.254 24.2107ZM236.341 18.5014C238.092 17.6346 239.9 16.798 241.767 15.9934L240.579 13.2385C238.665 14.0636 236.809 14.9222 235.01 15.8127L236.341 18.5014ZM247.031 13.8688C248.836 13.1882 250.69 12.5357 252.596 11.9126L251.663 9.06119C249.716 9.69783 247.82 10.3651 245.973 11.0618L247.031 13.8688ZM258.259 10.1917C260.06 9.68436 261.903 9.20187 263.789 8.74523L263.083 5.82947C261.162 6.29465 259.283 6.78651 257.445 7.30409L258.259 10.1917ZM269.577 7.4539C271.491 7.06193 273.446 6.69527 275.444 6.35482L274.94 3.39747C272.91 3.74338 270.922 4.11613 268.975 4.51487L269.577 7.4539ZM281.068 5.48177C282.979 5.21346 284.926 4.96808 286.91 4.74636L286.576 1.76493C284.565 1.98972 282.59 2.23861 280.651 2.51092L281.068 5.48177ZM292.971 4.15288C294.838 3.99521 296.737 3.85762 298.666 3.74064L298.485 0.74614C296.532 0.864529 294.61 1.00382 292.718 1.16352L292.971 4.15288ZM304.442 3.45606C306.398 3.38143 308.384 3.32718 310.401 3.29383L310.352 0.294236C308.313 0.32794 306.306 0.382771 304.328 0.458247L304.442 3.45606ZM316.538 3.25692C318.393 3.26485 320.272 3.28979 322.176 3.33211L322.243 0.332854C320.321 0.290143 318.424 0.264955 316.551 0.256945L316.538 3.25692ZM327.964 3.51155C329.919 3.58898 331.899 3.68413 333.904 3.79736L334.073 0.80213C332.051 0.687965 330.054 0.591999 328.083 0.513902L327.964 3.51155ZM339.999 4.19166C341.903 4.33023 343.829 4.48459 345.777 4.65502L346.038 1.66643C344.076 1.49475 342.135 1.33922 340.217 1.19958L339.999 4.19166ZM351.485 5.19393C353.408 5.38871 355.353 5.59874 357.319 5.82424L357.661 2.84378C355.682 2.61678 353.724 2.40533 351.787 2.20919L351.485 5.19393ZM363.282 6.54745C365.29 6.80418 367.321 7.07664 369.373 7.36508L369.791 4.39428C367.726 4.10412 365.683 3.82999 363.662 3.57165L363.282 6.54745ZM375.021 8.19109C376.896 8.47579 378.788 8.77351 380.698 9.08444L381.18 6.12341C379.26 5.8108 377.357 5.51142 375.472 5.2251L375.021 8.19109ZM386.481 10.057C388.427 10.3945 390.39 10.7454 392.372 11.1098L392.915 8.15933C390.923 7.79307 388.95 7.4404 386.994 7.10114L386.481 10.057ZM398.371 12.2441C399.38 12.4399 400.393 12.6392 401.411 12.842L401.997 9.89978C400.975 9.69608 399.956 9.49585 398.943 9.29905L398.371 12.2441Z" fill="#0567FB"/>
</svg>
