<svg width="62" height="62" viewBox="0 0 62 62" fill="none" xmlns="http://www.w3.org/2000/svg">
<circle cx="31" cy="31" r="31" fill="white" fill-opacity="0.1"/>
<path d="M36.2488 37.8135L37.6181 36.4456C37.7445 36.3192 37.8077 36.1729 37.8077 36.0067C37.8077 35.8404 37.7445 35.6931 37.6181 35.5648L32.0706 30.0085C32.2242 29.7227 32.339 29.4135 32.4148 29.081C32.4926 28.7485 32.5315 28.384 32.5315 27.9873C32.5315 26.702 32.0721 25.6034 31.1533 24.6915C30.2346 23.7776 29.1287 23.3206 27.8356 23.3206C27.6217 23.3206 27.4176 23.3328 27.2231 23.3571C27.0277 23.3814 26.8333 23.4232 26.6398 23.4825C26.4648 23.5428 26.3578 23.6663 26.319 23.8529C26.2801 24.0406 26.3267 24.201 26.459 24.3342L28.9323 26.8352L26.666 29.1L24.1373 26.599C24.0041 26.4658 23.8437 26.4191 23.656 26.459C23.4694 26.4978 23.343 26.6072 23.2769 26.7871C23.2253 26.9874 23.1869 27.1876 23.1617 27.3879C23.1364 27.5872 23.1238 27.7924 23.1238 28.0033C23.1238 29.2964 23.5831 30.4023 24.5019 31.321C25.4206 32.2398 26.5265 32.6992 27.8196 32.6992C28.189 32.6992 28.5376 32.6559 28.8652 32.5694C29.1919 32.4838 29.5176 32.3735 29.8423 32.2383L35.3971 37.7858C35.5235 37.9122 35.6654 37.9803 35.8229 37.99C35.9804 37.9997 36.1224 37.9414 36.2488 37.815M30.5044 43.625C28.6902 43.625 26.984 43.2808 25.3856 42.5925C23.7883 41.9032 22.3985 40.9679 21.2162 39.7867C20.034 38.6064 19.0983 37.2181 18.409 35.6217C17.7197 34.0253 17.375 32.3195 17.375 30.5044C17.375 28.6902 17.7192 26.984 18.4075 25.3856C19.0968 23.7883 20.0321 22.3985 21.2133 21.2162C22.3936 20.034 23.7819 19.0983 25.3783 18.409C26.9747 17.7197 28.6805 17.375 30.4956 17.375C32.3098 17.375 34.016 17.7192 35.6144 18.4075C37.2117 19.0968 38.6015 20.0321 39.7837 21.2133C40.966 22.3936 41.9017 23.7819 42.591 25.3783C43.2803 26.9747 43.625 28.6805 43.625 30.4956C43.625 32.3098 43.2808 34.016 42.5925 35.6144C41.9032 37.2117 40.9679 38.6015 39.7867 39.7837C38.6064 40.966 37.2181 41.9017 35.6217 42.591C34.0253 43.2803 32.3195 43.625 30.5044 43.625Z" fill="white"/>
</svg>
