<svg width="197" height="197" viewBox="0 0 197 197" fill="none" xmlns="http://www.w3.org/2000/svg">
<circle cx="13.8698" cy="87.824" r="9.80178" transform="rotate(-37.8116 13.8698 87.824)" fill="#7F7D7A"/>
<circle cx="45.6598" cy="63.1549" r="9.80178" transform="rotate(-37.8116 45.6598 63.1549)" fill="#7F7D7A"/>
<circle cx="77.4499" cy="38.4858" r="9.80178" transform="rotate(-37.8116 77.4499 38.4858)" fill="#7F7D7A"/>
<circle cx="109.24" cy="13.8167" r="9.80178" transform="rotate(-37.8116 109.24 13.8167)" fill="#7F7D7A"/>
<circle cx="38.539" cy="119.614" r="9.80178" transform="rotate(-37.8116 38.539 119.614)" fill="#7F7D7A"/>
<circle cx="70.329" cy="94.9449" r="9.80178" transform="rotate(-37.8116 70.329 94.9449)" fill="#7F7D7A"/>
<circle cx="102.119" cy="70.2758" r="9.80178" transform="rotate(-37.8116 102.119 70.2758)" fill="#7F7D7A"/>
<circle cx="133.909" cy="45.6066" r="9.80178" transform="rotate(-37.8116 133.909 45.6066)" fill="#7F7D7A"/>
<circle cx="63.2082" cy="151.404" r="9.80178" transform="rotate(-37.8116 63.2082 151.404)" fill="#7F7D7A"/>
<circle cx="94.9982" cy="126.735" r="9.80178" transform="rotate(-37.8116 94.9982 126.735)" fill="#7F7D7A"/>
<circle cx="126.788" cy="102.066" r="9.80178" transform="rotate(-37.8116 126.788 102.066)" fill="#7F7D7A"/>
<circle cx="158.578" cy="77.3966" r="9.80178" transform="rotate(-37.8116 158.578 77.3966)" fill="#7F7D7A"/>
<circle cx="87.8774" cy="183.194" r="9.80178" transform="rotate(-37.8116 87.8774 183.194)" fill="#7F7D7A"/>
<circle cx="119.667" cy="158.525" r="9.80178" transform="rotate(-37.8116 119.667 158.525)" fill="#7F7D7A"/>
<circle cx="151.457" cy="133.856" r="9.80178" transform="rotate(-37.8116 151.457 133.856)" fill="#7F7D7A"/>
<circle cx="183.247" cy="109.187" r="9.80178" transform="rotate(-37.8116 183.247 109.187)" fill="#7F7D7A"/>
</svg>
