<svg width="284" height="93" viewBox="0 0 284 93" fill="none" xmlns="http://www.w3.org/2000/svg">
<path d="M0 18.1809L16.9778 21.6096L11.4582 5.19208L0 18.1809ZM203.774 107.676L202.275 107.625L203.774 107.676ZM8.81729 16.8952C10.6613 16.3273 12.5424 15.7678 14.4576 15.2185L13.6306 12.3348C11.6968 12.8894 9.79702 13.4545 7.93439 14.028L8.81729 16.8952ZM20.0899 13.6603C21.9539 13.1633 23.8452 12.6772 25.7611 12.2039L25.0416 9.29146C23.1077 9.76924 21.1986 10.2599 19.3169 10.7616L20.0899 13.6603ZM31.4734 10.848C33.369 10.4164 35.285 9.99821 37.2192 9.59507L36.607 6.65819C34.6547 7.06513 32.7206 7.48723 30.8073 7.92291L31.4734 10.848ZM42.9534 8.45494C44.8629 8.09366 46.7871 7.748 48.7238 7.41937L48.2219 4.46165C46.2663 4.79349 44.3235 5.1425 42.3957 5.50724L42.9534 8.45494ZM54.5207 6.49328C56.4452 6.20505 58.3795 5.93464 60.3216 5.68339L59.9367 2.70818C57.9744 2.96205 56.0202 3.23524 54.0763 3.52637L54.5207 6.49328ZM66.1395 4.99162C68.0794 4.78151 70.0247 4.59158 71.9734 4.42313L71.7151 1.43427C69.7442 1.60463 67.7773 1.79668 65.8165 2.00907L66.1395 4.99162ZM77.813 3.98449C79.7619 3.8605 81.7121 3.7592 83.6616 3.68188L83.5427 0.684236C81.5687 0.762529 79.5946 0.865079 77.6225 0.990546L77.813 3.98449ZM89.5125 3.52306C91.4654 3.49495 93.4155 3.4923 95.3607 3.51641L95.3979 0.516644C93.4252 0.492192 91.4483 0.494888 89.4693 0.523371L89.5125 3.52306ZM101.212 3.67164C103.164 3.75169 105.11 3.86037 107.047 3.99903L107.261 1.00669C105.293 0.86579 103.317 0.755415 101.334 0.674154L101.212 3.67164ZM112.857 4.50959C114.805 4.71321 116.74 4.94916 118.661 5.21885L119.078 2.24798C117.121 1.97323 115.151 1.73302 113.169 1.52586L112.857 4.50959ZM124.423 6.13821C126.343 6.48259 128.246 6.86318 130.129 7.28142L130.78 4.35275C128.855 3.92532 126.912 3.53671 124.953 3.18533L124.423 6.13821ZM135.789 8.66906C137.674 9.17668 139.537 9.72523 141.374 10.3162L142.293 7.46033C140.408 6.85407 138.499 6.29194 136.569 5.77222L135.789 8.66906ZM146.855 12.2363C148.671 12.9267 150.458 13.6627 152.214 14.4458L153.436 11.706C151.627 10.8992 149.788 10.1419 147.922 9.43217L146.855 12.2363ZM157.442 16.968C159.161 17.8633 160.845 18.8091 162.491 19.807L164.046 17.2416C162.343 16.2092 160.603 15.2317 158.828 14.3073L157.442 16.968ZM167.33 22.971C168.906 24.0813 170.441 25.246 171.933 26.467L173.833 24.1454C172.284 22.8777 170.692 21.6694 169.058 20.5185L167.33 22.971ZM176.263 30.2883C177.65 31.6076 178.991 32.9838 180.285 34.4187L182.513 32.4093C181.167 30.9172 179.772 29.4863 178.331 28.1151L176.263 30.2883ZM183.983 38.848C185.151 40.3619 186.272 41.9336 187.343 43.5647L189.851 41.9178C188.738 40.223 187.572 38.5893 186.358 37.0152L183.983 38.848ZM190.325 48.4927C191.246 50.1485 192.12 51.8595 192.945 53.6271L195.664 52.3576C194.809 50.5266 193.902 48.7527 192.947 47.0346L190.325 48.4927ZM195.224 58.9717C195.908 60.7385 196.548 62.5567 197.14 64.4278L200 63.5217C199.389 61.5918 198.729 59.7143 198.021 57.888L195.224 58.9717ZM198.722 69.9822C199.194 71.8423 199.623 73.7504 200.008 75.7076L202.951 75.1293C202.557 73.1197 202.115 71.1582 201.63 69.244L198.722 69.9822ZM200.974 81.3729C201.25 83.2646 201.487 85.1989 201.682 87.1766L204.668 86.8808C204.467 84.8584 204.225 82.8784 203.943 80.9402L200.974 81.3729ZM202.132 92.9642C202.241 94.8693 202.314 96.812 202.35 98.7931L205.349 98.7382C205.312 96.7195 205.238 94.7381 205.127 92.7936L202.132 92.9642ZM202.352 104.627C202.335 105.617 202.309 106.617 202.275 107.625L205.273 107.728C205.308 106.702 205.334 105.686 205.351 104.678L202.352 104.627ZM202.275 107.625C202.238 108.713 202.195 109.777 202.147 110.817L205.143 110.956C205.192 109.904 205.235 108.828 205.273 107.728L202.275 107.625ZM201.794 116.765C201.648 118.752 201.48 120.634 201.292 122.414L204.275 122.73C204.467 120.915 204.638 119.001 204.786 116.985L201.794 116.765ZM200.529 128.385C200.213 130.452 199.866 132.34 199.49 134.056L202.421 134.697C202.812 132.911 203.171 130.96 203.494 128.838L200.529 128.385ZM198.062 139.399C197.359 141.545 196.608 143.236 195.839 144.526L198.416 146.063C199.328 144.532 200.163 142.625 200.913 140.332L198.062 139.399ZM192.392 147.756C191.359 148.011 190.079 147.67 188.535 146.243L186.498 148.446C188.432 150.233 190.71 151.26 193.109 150.669L192.392 147.756ZM185.235 141.883C184.38 140.403 183.548 138.677 182.76 136.729L179.979 137.855C180.81 139.908 181.701 141.763 182.638 143.384L185.235 141.883ZM180.849 131.27C180.311 129.492 179.811 127.602 179.358 125.613L176.433 126.28C176.901 128.333 177.418 130.291 177.978 132.139L180.849 131.27ZM178.221 119.81C177.914 117.965 177.648 116.058 177.427 114.099L174.446 114.435C174.673 116.445 174.946 118.404 175.261 120.302L178.221 119.81ZM176.917 108.259C176.797 106.335 176.72 104.374 176.693 102.381L173.693 102.423C173.721 104.464 173.799 106.474 173.923 108.446L176.917 108.259ZM176.75 96.5637C176.815 94.6245 176.927 92.6642 177.09 90.6891L174.1 90.4427C173.933 92.4672 173.818 94.476 173.751 96.4629L176.75 96.5637ZM177.711 84.8976C177.965 82.9755 178.269 81.0455 178.626 79.113L175.676 78.5679C175.309 80.5521 174.997 82.5327 174.737 84.5043L177.711 84.8976ZM179.838 73.4C180.291 71.5171 180.797 69.6373 181.358 67.7655L178.485 66.9032C177.907 68.8298 177.387 70.7634 176.921 72.6988L179.838 73.4ZM183.199 62.2214C183.861 60.4065 184.58 58.6043 185.358 56.8195L182.608 55.6206C181.805 57.463 181.064 59.322 180.381 61.1927L183.199 62.2214ZM187.862 51.5431C188.743 49.8324 189.683 48.1429 190.684 46.4791L188.114 44.9316C187.077 46.6539 186.105 48.4016 185.195 50.17L187.862 51.5431ZM193.871 41.5793C194.968 40.0139 196.127 38.4769 197.349 36.9723L195.021 35.0808C193.753 36.6413 192.552 38.2347 191.414 39.8569L193.871 41.5793ZM201.202 32.5663C202.504 31.1835 203.866 29.8343 205.292 28.5224L203.26 26.3148C201.781 27.6759 200.368 29.0757 199.018 30.5104L201.202 32.5663ZM209.76 24.7027C211.235 23.5321 212.769 22.3982 214.365 21.304L212.668 18.83C211.015 19.9636 209.425 21.1389 207.895 22.3528L209.76 24.7027ZM219.336 18.144C220.955 17.1916 222.63 16.2772 224.363 15.4034L223.013 12.7246C221.222 13.6273 219.49 14.5727 217.815 15.5582L219.336 18.144ZM229.685 12.9288C231.43 12.1828 233.228 11.4753 235.08 10.8086L234.064 7.98593C232.157 8.67214 230.305 9.40101 228.506 10.1703L229.685 12.9288ZM240.589 8.99646C242.461 8.4364 244.384 7.91566 246.359 7.43626L245.651 4.52091C243.626 5.0125 241.652 5.54694 239.729 6.12234L240.589 8.99646ZM251.906 6.22688C253.799 5.85932 255.737 5.52784 257.72 5.23399L257.28 2.26639C255.254 2.56666 253.272 2.90563 251.334 3.28187L251.906 6.22688ZM263.591 4.48953C265.452 4.29217 267.35 4.12638 269.286 3.9933L269.08 1.00037C267.108 1.13594 265.173 1.30492 263.275 1.50626L263.591 4.48953ZM275.208 3.6933C277.161 3.62872 279.151 3.596 281.177 3.59617L281.177 0.596168C279.119 0.595998 277.096 0.629241 275.109 0.694936L275.208 3.6933ZM286.868 3.68108C288.797 3.73779 290.757 3.8232 292.75 3.93808L292.923 0.943057C290.902 0.82658 288.914 0.739936 286.956 0.682372L286.868 3.68108ZM298.825 4.37198C300.692 4.53052 302.587 4.714 304.508 4.92302L304.833 1.94062C302.888 1.72908 300.97 1.54331 299.078 1.38274L298.825 4.37198ZM310.25 5.61352C312.191 5.86872 314.158 6.14913 316.151 6.45531L316.607 3.49007C314.592 3.18067 312.604 2.8972 310.641 2.63914L310.25 5.61352ZM322.208 7.45065C324.034 7.77017 325.882 8.11064 327.752 8.47246L328.322 5.52709C326.435 5.16191 324.569 4.81819 322.725 4.49553L322.208 7.45065ZM333.428 9.62234C335.341 10.0273 337.277 10.4539 339.235 10.9027L339.906 7.97853C337.931 7.52604 335.979 7.09576 334.049 6.68731L333.428 9.62234ZM345.177 12.3159C347.03 12.7726 348.903 13.2485 350.795 13.744L351.555 10.8419C349.649 10.3427 347.762 9.86321 345.895 9.40303L345.177 12.3159ZM356.331 15.2348C358.194 15.7502 360.076 16.2841 361.976 16.8369L362.814 13.9563C360.901 13.3999 359.007 12.8623 357.13 12.3433L356.331 15.2348ZM367.732 18.5522C369.669 19.143 371.625 19.7529 373.6 20.3822L374.511 17.5239C372.525 16.8908 370.557 16.2771 368.607 15.6826L367.732 18.5522ZM379.028 22.1459C380.829 22.7417 382.644 23.3533 384.474 23.9809L385.447 21.143C383.607 20.512 381.781 19.897 379.971 19.2979L379.028 22.1459ZM390.012 25.9118C391.873 26.5716 393.75 27.2476 395.642 27.9399L396.673 25.1226C394.771 24.4268 392.885 23.7474 391.014 23.0842L390.012 25.9118ZM401.365 30.0665C402.326 30.4291 403.292 30.796 404.261 31.167L405.333 28.3651C404.36 27.9924 403.39 27.6239 402.423 27.2595L401.365 30.0665Z" fill="#0567FB"/>
</svg>
