<svg width="31" height="31" viewBox="0 0 31 31" fill="none" xmlns="http://www.w3.org/2000/svg">
<path d="M14.2547 5.70187C15.4327 5.70187 16.5414 5.9246 17.5808 6.37006C18.6202 6.81552 19.526 7.42927 20.2981 8.21129C21.0702 8.99332 21.679 9.89909 22.1245 10.9286C22.5699 11.9581 22.7976 13.0668 22.8075 14.2547C22.8075 14.8783 22.7679 15.4624 22.6887 16.0068C22.6095 16.5513 22.4858 17.071 22.3175 17.5659C22.1492 18.0609 21.9314 18.5509 21.6642 19.0359C21.3969 19.521 21.0801 20.016 20.7138 20.5208C20.4268 20.9168 20.1743 21.2731 19.9566 21.5899C19.7388 21.9067 19.5606 22.2235 19.422 22.5402C19.2834 22.857 19.1795 23.2035 19.1102 23.5796C19.0409 23.9558 19.0063 24.3963 19.0063 24.9012V27.5591C19.0063 27.955 18.932 28.3262 18.7835 28.6727C18.635 29.0192 18.4321 29.3211 18.1747 29.5785C17.9174 29.8359 17.6154 30.0388 17.269 30.1873C16.9225 30.3358 16.5513 30.41 16.1553 30.41H12.3541C11.9581 30.41 11.5869 30.3358 11.2404 30.1873C10.8939 30.0388 10.592 29.8359 10.3346 29.5785C10.0773 29.3211 9.87434 29.0192 9.72585 28.6727C9.57737 28.3262 9.50313 27.955 9.50313 27.5591V24.8863C9.50313 24.3815 9.46848 23.9459 9.39918 23.5796C9.32989 23.2134 9.22595 22.8718 9.08736 22.5551C8.94878 22.2383 8.77059 21.9166 8.55281 21.5899C8.33503 21.2632 8.08261 20.9069 7.79553 20.5208C7.42927 20.016 7.11744 19.526 6.86007 19.0508C6.60269 18.5756 6.38491 18.0856 6.20673 17.5808C6.02854 17.0759 5.89986 16.5513 5.82066 16.0068C5.74147 15.4624 5.70187 14.8783 5.70187 14.2547C5.70187 13.0767 5.9246 11.968 6.37006 10.9286C6.81552 9.88919 7.42927 8.98342 8.21129 8.21129C8.99332 7.43917 9.89909 6.83037 10.9286 6.38491C11.9581 5.93945 13.0668 5.71177 14.2547 5.70187ZM17.1056 27.5591V26.6087H11.4037V27.5591C11.4037 27.8164 11.4978 28.0392 11.6859 28.2273C11.874 28.4153 12.0967 28.5094 12.3541 28.5094H16.1553C16.4127 28.5094 16.6354 28.4153 16.8235 28.2273C17.0116 28.0392 17.1056 27.8164 17.1056 27.5591ZM20.9069 14.2547C20.9069 13.3341 20.7336 12.4729 20.3872 11.671C20.0407 10.8692 19.5655 10.1614 18.9617 9.54767C18.3579 8.93393 17.655 8.45877 16.8532 8.1222C16.0514 7.78563 15.1852 7.6124 14.2547 7.6025C13.3341 7.6025 12.4729 7.77573 11.671 8.1222C10.8692 8.46867 10.1614 8.94383 9.54767 9.54767C8.93393 10.1515 8.45877 10.8544 8.1222 11.6562C7.78563 12.458 7.6124 13.3242 7.6025 14.2547C7.6025 15.1357 7.69159 15.893 7.86978 16.5265C8.04796 17.1601 8.28059 17.7243 8.56766 18.2193C8.85473 18.7142 9.15666 19.1795 9.47343 19.615C9.7902 20.0506 10.0921 20.506 10.3792 20.9811C10.6663 21.4563 10.9038 21.9908 11.0919 22.5848C11.28 23.1787 11.384 23.8865 11.4037 24.7081H17.1056C17.1155 23.8865 17.2145 23.1837 17.4026 22.5996C17.5907 22.0156 17.8283 21.481 18.1153 20.996C18.4024 20.5109 18.7043 20.0556 19.0211 19.6299C19.3379 19.2042 19.6398 18.739 19.9269 18.2341C20.2139 17.7293 20.4466 17.1601 20.6248 16.5265C20.8029 15.893 20.897 15.1357 20.9069 14.2547ZM14.2547 3.80125C13.9973 3.80125 13.7746 3.70721 13.5865 3.51913C13.3984 3.33104 13.3044 3.10831 13.3044 2.85094V0.950312C13.3044 0.692936 13.3984 0.470207 13.5865 0.282124C13.7746 0.0940413 13.9973 0 14.2547 0C14.5121 0 14.7348 0.0940413 14.9229 0.282124C15.111 0.470207 15.205 0.692936 15.205 0.950312V2.85094C15.205 3.10831 15.111 3.33104 14.9229 3.51913C14.7348 3.70721 14.5121 3.80125 14.2547 3.80125ZM2.85094 13.7795H0.950312C0.692936 13.7795 0.470207 13.6855 0.282124 13.4974C0.0940413 13.3093 0 13.0866 0 12.8292C0 12.5718 0.0940413 12.3491 0.282124 12.161C0.470207 11.9729 0.692936 11.8789 0.950312 11.8789H2.85094C3.10831 11.8789 3.33104 11.9729 3.51913 12.161C3.70721 12.3491 3.80125 12.5718 3.80125 12.8292C3.80125 13.0866 3.70721 13.3093 3.51913 13.4974C3.33104 13.6855 3.10831 13.7795 2.85094 13.7795ZM3.63792 17.655C3.89529 17.655 4.11802 17.7491 4.3061 17.9371C4.49419 18.1252 4.58823 18.3529 4.58823 18.6202C4.58823 18.8182 4.53378 18.9914 4.42489 19.1399C4.316 19.2884 4.16752 19.4072 3.97943 19.4963C3.87054 19.5457 3.72206 19.6101 3.53397 19.6893C3.34589 19.7685 3.14296 19.8526 2.92518 19.9417C2.7074 20.0308 2.50942 20.105 2.33124 20.1644C2.15305 20.2238 1.99467 20.2585 1.85608 20.2684C1.5987 20.2684 1.37597 20.1743 1.18789 19.9863C0.999808 19.7982 0.905767 19.5705 0.905767 19.3032C0.905767 19.1052 0.960212 18.932 1.0691 18.7835C1.17799 18.635 1.32648 18.5162 1.51456 18.4272C1.62345 18.3876 1.77194 18.3232 1.96002 18.2341C2.1481 18.145 2.35103 18.0609 2.56881 17.9817C2.78659 17.9025 2.98458 17.8283 3.16276 17.759C3.34094 17.6897 3.49933 17.655 3.63792 17.655ZM5.89491 8.07766C5.89491 8.33503 5.80087 8.55776 5.61278 8.74584C5.4247 8.93393 5.20197 9.02797 4.94459 9.02797C4.76641 9.02797 4.60308 8.98342 4.45459 8.89433L2.83609 7.89947C2.6975 7.81038 2.58861 7.69654 2.50942 7.55795C2.43023 7.41937 2.38568 7.26098 2.37578 7.0828C2.37578 6.82542 2.46982 6.60269 2.65791 6.41461C2.84599 6.22653 3.06872 6.13249 3.32609 6.13249C3.48448 6.13249 3.64781 6.18198 3.8161 6.28097L5.44945 7.26098C5.58804 7.34017 5.69693 7.45401 5.77612 7.6025C5.85531 7.75099 5.89491 7.90937 5.89491 8.07766ZM7.12734 2.61336C7.12734 2.35598 7.22139 2.13325 7.40947 1.94517C7.59755 1.75709 7.82028 1.66305 8.07766 1.66305C8.24594 1.66305 8.40433 1.70759 8.55281 1.79668C8.7013 1.88578 8.82009 2.00457 8.90918 2.15305L9.82979 3.8161C9.90899 3.95469 9.94858 4.10317 9.94858 4.26156C9.94858 4.52883 9.85454 4.75651 9.66646 4.94459C9.47838 5.13268 9.25565 5.22672 8.99827 5.22672C8.82999 5.22672 8.6716 5.18217 8.52312 5.09308C8.37463 5.00399 8.25584 4.8852 8.16675 4.73671L7.24613 3.07367C7.16694 2.93508 7.12734 2.78164 7.12734 2.61336ZM27.5591 11.8789C27.8164 11.8789 28.0392 11.9729 28.2273 12.161C28.4153 12.3491 28.5094 12.5718 28.5094 12.8292C28.5094 13.0866 28.4153 13.3093 28.2273 13.4974C28.0392 13.6855 27.8164 13.7795 27.5591 13.7795H25.6584C25.4011 13.7795 25.1783 13.6855 24.9902 13.4974C24.8022 13.3093 24.7081 13.0866 24.7081 12.8292C24.7081 12.5718 24.8022 12.3491 24.9902 12.161C25.1783 11.9729 25.4011 11.8789 25.6584 11.8789H27.5591ZM27.5888 19.3181C27.5888 19.5754 27.4947 19.7982 27.3066 19.9863C27.1186 20.1743 26.8958 20.2684 26.6384 20.2684C26.5296 20.2684 26.3811 20.2387 26.193 20.1793C26.0049 20.1199 25.802 20.0407 25.5842 19.9417C25.3664 19.8427 25.1684 19.7586 24.9902 19.6893C24.8121 19.62 24.6586 19.5507 24.5299 19.4814C24.3518 19.4022 24.2082 19.2834 24.0993 19.125C23.9904 18.9667 23.931 18.7885 23.9211 18.5905C23.9211 18.3232 24.0152 18.1005 24.2033 17.9223C24.3914 17.7441 24.619 17.6501 24.8863 17.6402C25.0051 17.6402 25.1585 17.6748 25.3466 17.7441C25.5347 17.8134 25.7327 17.8926 25.9406 17.9817C26.1484 18.0708 26.3464 18.1599 26.5345 18.249C26.7226 18.3381 26.876 18.4024 26.9948 18.442C27.173 18.5212 27.3165 18.635 27.4254 18.7835C27.5343 18.932 27.5888 19.1102 27.5888 19.3181ZM23.5648 9.02797C23.3074 9.02797 23.0847 8.93393 22.8966 8.74584C22.7085 8.55776 22.6145 8.33503 22.6145 8.07766C22.6145 7.90937 22.6541 7.75099 22.7333 7.6025C22.8124 7.45401 22.9213 7.34017 23.0599 7.26098L24.6933 6.28097C24.8616 6.18198 25.0249 6.13249 25.1833 6.13249C25.4407 6.13249 25.6634 6.22653 25.8515 6.41461C26.0396 6.60269 26.1336 6.82542 26.1336 7.0828C26.1336 7.25108 26.094 7.40452 26.0148 7.54311C25.9356 7.68169 25.8218 7.80048 25.6733 7.89947L24.0548 8.89433C23.9063 8.98342 23.743 9.02797 23.5648 9.02797ZM18.5608 4.26156C18.5608 4.10317 18.6004 3.95469 18.6796 3.8161L19.6002 2.15305C19.6794 2.00457 19.7932 1.88578 19.9417 1.79668C20.0902 1.70759 20.2535 1.66305 20.4317 1.66305C20.6891 1.66305 20.9118 1.75709 21.0999 1.94517C21.288 2.13325 21.382 2.35598 21.382 2.61336C21.382 2.78164 21.3424 2.93508 21.2632 3.07367L20.3426 4.73671C20.2634 4.8852 20.1496 5.00399 20.0011 5.09308C19.8526 5.18217 19.6893 5.22672 19.5111 5.22672C19.2537 5.22672 19.031 5.13268 18.8429 4.94459C18.6548 4.75651 18.5608 4.52883 18.5608 4.26156Z" fill="#0567FB"/>
</svg>
