<svg width="31" height="31" viewBox="0 0 31 31" fill="none" xmlns="http://www.w3.org/2000/svg">
<path d="M15.2048 3.80505C14.7061 3.80505 14.2123 3.90328 13.7515 4.09412C13.2908 4.28496 12.8722 4.56467 12.5196 4.9173C12.1669 5.26993 11.8872 5.68855 11.6964 6.14928C11.5055 6.61001 11.4073 7.10381 11.4073 7.6025C11.4073 8.10119 11.5055 8.595 11.6964 9.05572C11.8872 9.51645 12.1669 9.93508 12.5196 10.2877C12.8722 10.6403 13.2908 10.92 13.7515 11.1109C14.2123 11.3017 14.7061 11.4 15.2048 11.4C16.2119 11.4 17.1778 10.9999 17.89 10.2877C18.6021 9.57554 19.0022 8.60965 19.0022 7.6025C19.0022 6.59536 18.6021 5.62946 17.89 4.9173C17.1778 4.20514 16.2119 3.80505 15.2048 3.80505ZM23.7576 5.70188C23.0015 5.70188 22.2763 6.00224 21.7417 6.5369C21.207 7.07155 20.9066 7.7967 20.9066 8.55281C20.9066 9.30893 21.207 10.0341 21.7417 10.5687C22.2763 11.1034 23.0015 11.4038 23.7576 11.4038C24.5137 11.4038 25.2388 11.1034 25.7735 10.5687C26.3081 10.0341 26.6085 9.30893 26.6085 8.55281C26.6085 7.7967 26.3081 7.07155 25.7735 6.5369C25.2388 6.00224 24.5137 5.70188 23.7576 5.70188ZM6.65195 5.70188C5.89584 5.70188 5.17069 6.00224 4.63604 6.5369C4.10138 7.07155 3.80102 7.7967 3.80102 8.55281C3.80102 9.30893 4.10138 10.0341 4.63604 10.5687C5.17069 11.1034 5.89584 11.4038 6.65195 11.4038C7.40807 11.4038 8.13322 11.1034 8.66787 10.5687C9.20253 10.0341 9.50289 9.30893 9.50289 8.55281C9.50289 7.7967 9.20253 7.07155 8.66787 6.5369C8.13322 6.00224 7.40807 5.70188 6.65195 5.70188ZM9.50289 15.1917C9.5064 14.6899 9.7082 14.2099 10.0643 13.8563C10.4203 13.5028 10.9017 13.3044 11.4035 13.3044H19.006C19.5101 13.3044 19.9935 13.5046 20.35 13.8611C20.7064 14.2175 20.9066 14.7009 20.9066 15.205V20.9069C20.9065 21.505 20.8129 22.0995 20.6292 22.6688C20.2083 23.9587 19.3414 25.0564 18.184 25.7647C17.0267 26.473 15.6547 26.7455 14.3146 26.5332C12.9744 26.321 11.7538 25.638 10.8719 24.6068C9.98999 23.5756 9.50461 22.2638 9.50289 20.9069V15.205V15.1917ZM7.60227 15.205C7.60227 14.5113 7.78663 13.8632 8.11163 13.3044H3.80102C3.29694 13.3044 2.81351 13.5046 2.45707 13.8611C2.10063 14.2175 1.90039 14.7009 1.90039 15.205V19.9566C1.90013 20.7345 2.09088 21.5006 2.45589 22.1876C2.8209 22.8746 3.349 23.4614 3.99382 23.8966C4.63864 24.3318 5.38044 24.602 6.1541 24.6836C6.92775 24.7651 7.70958 24.6554 8.43094 24.3641C7.8839 23.2933 7.59983 22.1075 7.60227 20.905V15.205ZM22.8073 15.205V20.9069C22.8073 22.1518 22.5089 23.3264 21.9786 24.3641C22.6999 24.6554 23.4818 24.7651 24.2554 24.6836C25.0291 24.602 25.7709 24.3318 26.4157 23.8966C27.0605 23.4614 27.5886 22.8746 27.9536 22.1876C28.3186 21.5006 28.5094 20.7345 28.5091 19.9566V15.205C28.5091 14.7009 28.3089 14.2175 27.9525 13.8611C27.596 13.5046 27.1126 13.3044 26.6085 13.3044H22.2979C22.621 13.8632 22.8073 14.5113 22.8073 15.205Z" fill="#0567FB"/>
</svg>
