<svg width="62" height="62" viewBox="0 0 62 62" fill="none" xmlns="http://www.w3.org/2000/svg">
<circle cx="31" cy="31" r="31" fill="white" fill-opacity="0.1"/>
<path d="M26.125 40.3438C25.3178 40.3438 24.62 40.7867 24.2404 41.4375H18.0826L20.9789 35.8681C21.2272 35.9283 21.4831 35.9688 21.75 35.9688C23.559 35.9688 25.0312 34.4966 25.0312 32.6875C25.0312 30.8784 23.559 29.4062 21.75 29.4062C19.9409 29.4062 18.4687 30.8784 18.4687 32.6875C18.4687 33.4302 18.7258 34.1072 19.1425 34.6573L15.3111 42.0281C15.2247 42.1948 15.1827 42.3808 15.1891 42.5684C15.1955 42.756 15.25 42.9387 15.3475 43.0991C15.4449 43.2595 15.582 43.3922 15.7455 43.4843C15.9091 43.5764 16.0935 43.6248 16.2812 43.625H24.2404C24.62 44.2758 25.3178 44.7188 26.125 44.7188C26.7051 44.7188 27.2615 44.4883 27.6718 44.078C28.082 43.6678 28.3125 43.1114 28.3125 42.5312C28.3125 41.9511 28.082 41.3947 27.6718 40.9845C27.2615 40.5742 26.7051 40.3438 26.125 40.3438ZM21.75 31.5938C22.0316 31.6063 22.2975 31.7271 22.4923 31.9308C22.6872 32.1346 22.7959 32.4056 22.7959 32.6875C22.7959 32.9694 22.6872 33.2404 22.4923 33.4442C22.2975 33.6479 22.0316 33.7687 21.75 33.7812C21.4599 33.7812 21.1817 33.666 20.9766 33.4609C20.7715 33.2558 20.6562 32.9776 20.6562 32.6875C20.6562 32.3974 20.7715 32.1192 20.9766 31.9141C21.1817 31.709 21.4599 31.5938 21.75 31.5938ZM45.6889 42.027L41.2701 33.5275C41.4504 33.0941 41.4864 32.6142 41.373 32.1587C41.2595 31.7032 41.0025 31.2963 40.6399 30.9981C40.2774 30.6999 39.8286 30.5262 39.3598 30.5027C38.8909 30.4793 38.427 30.6072 38.0365 30.8677C37.646 31.1282 37.3496 31.5074 37.1912 31.9492C37.0328 32.3911 37.0207 32.8722 37.1567 33.3215C37.2928 33.7708 37.5697 34.1643 37.9467 34.4441C38.3236 34.7238 38.7806 34.8749 39.25 34.875C39.332 34.875 39.4108 34.8597 39.4906 34.8498L42.9173 41.4375H37.955C37.7303 40.7995 37.3135 40.2467 36.7621 39.855C36.2106 39.4634 35.5514 39.252 34.875 39.25C33.0659 39.25 31.5937 40.7222 31.5937 42.5312C31.5937 44.3403 33.0659 45.8125 34.875 45.8125C35.5514 45.8105 36.2106 45.5991 36.7621 45.2075C37.3135 44.8158 37.7303 44.263 37.955 43.625H44.7187C44.9067 43.625 45.0915 43.5766 45.2553 43.4844C45.4192 43.3922 45.5564 43.2593 45.654 43.0986C45.7515 42.9379 45.8059 42.7547 45.812 42.5668C45.8181 42.379 45.7757 42.1938 45.6889 42.027ZM34.875 43.625C34.5934 43.6124 34.3274 43.4917 34.1326 43.2879C33.9378 43.0842 33.8291 42.8132 33.8291 42.5312C33.8291 42.2493 33.9378 41.9783 34.1326 41.7746C34.3274 41.5708 34.5934 41.4501 34.875 41.4375C35.1566 41.4501 35.4225 41.5708 35.6173 41.7746C35.8122 41.9783 35.9209 42.2493 35.9209 42.5312C35.9209 42.8132 35.8122 43.0842 35.6173 43.2879C35.4225 43.4917 35.1566 43.6124 34.875 43.625ZM35.9687 21.75C35.7086 21.7526 35.4497 21.7864 35.1976 21.8506L31.4701 14.6844C31.282 14.3202 30.8904 14.0938 30.5 14.0938C30.1095 14.0938 29.7179 14.3202 29.5298 14.6833L25.2718 22.8689C25.1931 22.8591 25.1143 22.8438 25.0312 22.8438C24.5618 22.8436 24.1047 22.9945 23.7276 23.2741C23.3505 23.5537 23.0733 23.9472 22.9371 24.3965C22.8009 24.8457 22.8128 25.3269 22.9711 25.7689C23.1294 26.2108 23.4257 26.5901 23.8162 26.8508C24.2067 27.1114 24.6706 27.2394 25.1395 27.216C25.6084 27.1926 26.0573 27.019 26.4199 26.7208C26.7825 26.4227 27.0396 26.0157 27.1531 25.5602C27.2666 25.1047 27.2306 24.6247 27.0503 24.1913L30.5 17.5588L33.3612 23.0603C32.9265 23.6256 32.6897 24.3181 32.6875 25.0312C32.6875 26.8403 34.1597 28.3125 35.9687 28.3125C37.7778 28.3125 39.25 26.8403 39.25 25.0312C39.25 23.2222 37.7778 21.75 35.9687 21.75ZM35.9687 26.125C35.6871 26.1124 35.4212 25.9917 35.2264 25.7879C35.0315 25.5842 34.9228 25.3132 34.9228 25.0312C34.9228 24.7493 35.0315 24.4783 35.2264 24.2746C35.4212 24.0708 35.6871 23.9501 35.9687 23.9375C36.2503 23.9501 36.5162 24.0708 36.7111 24.2746C36.9059 24.4783 37.0146 24.7493 37.0146 25.0312C37.0146 25.3132 36.9059 25.5842 36.7111 25.7879C36.5162 25.9917 36.2503 26.1124 35.9687 26.125Z" fill="white"/>
</svg>
