<svg width="241" height="251" viewBox="0 0 241 251" fill="none" xmlns="http://www.w3.org/2000/svg">
<path d="M2.37839 210.221C10.2893 222.232 21.2918 238.172 31.0187 248.541M31.0187 248.541C32.139 249.736 38.2275 239.056 38.4665 238.54C43.7211 227.225 47.333 215.57 50.7591 203.613M31.0187 248.541C3.41086 175.432 27.2705 100.106 76.2208 73.4507C81.0723 70.8088 86.3556 67.9384 91.8715 65.5503M91.8715 65.5503C100.656 61.7473 110.03 59.1674 119.191 60.6817C127.646 62.0796 138.071 67.4602 141.144 75.8782C146.885 91.6037 129.798 105.794 114.367 101.058C100.807 96.8961 89.4122 79.3598 91.8715 65.5503ZM91.8715 65.5503C91.9234 65.259 91.9814 64.9694 92.0457 64.6816C107.57 -4.78668 190.955 -12.4271 239.049 20.4639" stroke="#076AFF" stroke-width="3.0953" stroke-miterlimit="1.5" stroke-linecap="round" stroke-linejoin="round"/>
</svg>
