<svg width="38" height="38" viewBox="0 0 38 38" fill="none" xmlns="http://www.w3.org/2000/svg">
<path d="M2.33789 18.7016C2.33789 14.3617 4.06194 10.1994 7.13077 7.13059C10.1996 4.06176 14.3618 2.33771 18.7018 2.33771M2.33789 18.7016C2.33789 23.0416 4.06194 27.2038 7.13077 30.2727C10.1996 33.3415 14.3618 35.0656 18.7018 35.0656M2.33789 18.7016H6.70071M18.7018 2.33771C23.0418 2.33771 27.204 4.06176 30.2729 7.13059C33.3417 10.1994 35.0657 14.3617 35.0657 18.7016M18.7018 2.33771V6.70053M35.0657 18.7016C35.0657 23.0416 33.3417 27.2038 30.2729 30.2727C27.204 33.3415 23.0418 35.0656 18.7018 35.0656M35.0657 18.7016H30.7029M18.7018 35.0656V30.7027M14.4165 18.7016H22.9872M18.7018 14.4163V22.987" stroke="#0567FB" stroke-width="2.03279" stroke-linecap="round" stroke-linejoin="round"/>
</svg>
