<svg width="24" height="24" viewBox="0 0 24 24" fill="none" xmlns="http://www.w3.org/2000/svg">
<g clip-path="url(#clip0_0_1906)">
<path d="M23.9532 2.52662C23.9338 2.438 23.8912 2.35609 23.8299 2.28919C23.7687 2.22228 23.6908 2.17276 23.6042 2.14562C23.2889 2.08317 22.9626 2.10631 22.6592 2.21262C22.6592 2.21262 1.63021 9.77162 0.429212 10.6086C0.171212 10.7886 0.084212 10.8936 0.041212 11.0166C-0.166788 11.6166 0.480212 11.8746 0.480212 11.8746L5.90021 13.6406C5.99186 13.6571 6.08609 13.6516 6.17521 13.6246C7.40721 12.8456 18.5752 5.79062 19.2242 5.55362C19.3242 5.52362 19.4012 5.55362 19.3812 5.62862C19.1232 6.53362 9.47221 15.1066 9.41921 15.1586C9.39339 15.1798 9.37328 15.2071 9.36071 15.238C9.34813 15.2689 9.34349 15.3025 9.34721 15.3356L8.84121 20.6276C8.84121 20.6276 8.62921 22.2746 10.2762 20.6276C11.4442 19.4586 12.5652 18.4906 13.1252 18.0196C14.9892 19.3066 16.9942 20.7296 17.8592 21.4746C18.0047 21.6155 18.1771 21.7255 18.3661 21.7982C18.5551 21.8709 18.7568 21.9047 18.9592 21.8976C19.2084 21.8672 19.4425 21.7617 19.6302 21.595C19.818 21.4284 19.9505 21.2085 20.0102 20.9646C20.0102 20.9646 23.8402 5.54162 23.9682 3.47562C23.9812 3.27562 23.9982 3.14362 24.0002 3.00462C24.0064 2.84389 23.9906 2.68306 23.9532 2.52662Z" fill="white"/>
</g>
<defs>
<clipPath id="clip0_0_1906">
<rect width="24" height="24" fill="white"/>
</clipPath>
</defs>
</svg>
